<?xml version="1.0" encoding="UTF-8" standalone="no"?>
<!DOCTYPE svg PUBLIC "-//W3C//DTD SVG 1.1//EN"
 "http://www.w3.org/Graphics/SVG/1.1/DTD/svg11.dtd">
<!-- Generated by graphviz version 2.43.0 (0)
 -->
<!-- Title: dynarr/src/dynarr.h Pages: 1 -->
<!--zoomable 148 -->

<svg id="main" version="1.1" xmlns="http://www.w3.org/2000/svg" xmlns:xlink="http://www.w3.org/1999/xlink" xml:space="preserve" onload="init(evt)">
<style type="text/css"><![CDATA[
.node, .edge {opacity: 0.7;}
.node.selected, .edge.selected {opacity: 1;}
.edge:hover path { stroke: red; }
.edge:hover polygon { stroke: red; fill: red; }
]]></style>

<defs>
  <circle id="rim" cx="0" cy="0" r="7"/>
  <circle id="rim2" cx="0" cy="0" r="3.5"/>
  <g id="zoomPlus">
    <use xlink:href="#rim" fill="#404040"><set attributeName="fill" to="#808080" begin="zoomplus.mouseover" end="zoomplus.mouseout"/></use>
    <path d="M-4,0h8M0,-4v8" fill="none" stroke="white" stroke-width="1.5" pointer-events="none"/>
  </g>
  <g id="zoomMin">
    <use xlink:href="#rim" fill="#404040"><set attributeName="fill" to="#808080" begin="zoomminus.mouseover" end="zoomminus.mouseout"/></use>
    <path d="M-4,0h8" fill="none" stroke="white" stroke-width="1.5" pointer-events="none"/>
  </g>
  <g id="arrowUp" transform="translate(30 24)">
    <use xlink:href="#rim"/>
    <path pointer-events="none" fill="none" stroke="white" stroke-width="1.5" d="M0,-3.0v7 M-2.5,-0.5L0,-3.0L2.5,-0.5"/>
  </g>
  <g id="arrowRight" transform="rotate(90) translate(36 -43)">
    <use xlink:href="#rim"/>
    <path pointer-events="none" fill="none" stroke="white" stroke-width="1.5" d="M0,-3.0v7 M-2.5,-0.5L0,-3.0L2.5,-0.5"/>
  </g>
  <g id="arrowDown" transform="rotate(180) translate(-30 -48)">
    <use xlink:href="#rim"/>
    <path pointer-events="none" fill="none" stroke="white" stroke-width="1.5" d="M0,-3.0v7 M-2.5,-0.5L0,-3.0L2.5,-0.5"/>
  </g>
  <g id="arrowLeft" transform="rotate(270) translate(-36 17)">
    <use xlink:href="#rim"/>
    <path pointer-events="none" fill="none" stroke="white" stroke-width="1.5" d="M0,-3.0v7 M-2.5,-0.5L0,-3.0L2.5,-0.5"/>
  </g>
  <g id="resetDef">
    <use xlink:href="#rim2" fill="#404040"><set attributeName="fill" to="#808080" begin="reset.mouseover" end="reset.mouseout"/></use>
  </g>
</defs>
<script type="application/ecmascript">
var viewWidth = 679;
var viewHeight = 148;
var sectionId = 'dynsection-1';
</script>
<script type="application/ecmascript" xlink:href="svg.min.js"/>
<svg id="graph" class="graph">
<g id="viewport">
<title>dynarr/src/dynarr.h</title>
<!-- Node1 -->
<g id="Node000001" class="node">
<title>Node1</title>
<g id="a_Node000001"><a xlink:title="Describes dynarr public interface.">
<polygon fill="#999999" stroke="#666666" points="474.5,-140 366.5,-140 366.5,-121 474.5,-121 474.5,-140"/>
<text text-anchor="middle" x="420.5" y="-128" font-family="Mononoki" font-size="10.00">dynarr/src/dynarr.h</text>
</a>
</g>
</g>
<!-- Node2 -->
<g id="Node000002" class="node">
<title>Node2</title>
<g id="a_Node000002"><a xlink:href="create_8c_source.html" target="_top" xlink:title=" ">
<polygon fill="white" stroke="#666666" points="141,-79.5 0,-79.5 0,-60.5 141,-60.5 141,-79.5"/>
<text text-anchor="middle" x="70.5" y="-67.5" font-family="Mononoki" font-size="10.00">dynarr/examples/create.c</text>
</a>
</g>
</g>
<!-- Node1&#45;&gt;Node2 -->
<g id="edge1_Node000001_Node000002" class="edge">
<title>Node1&#45;&gt;Node2</title>
<g id="a_edge1_Node000001_Node000002"><a xlink:title=" ">
<path fill="none" stroke="#63b8ff" d="M358.06,-119.39C303.31,-110.48 221.6,-97.08 150.5,-85 140.21,-83.25 129.19,-81.35 118.71,-79.52"/>
<polygon fill="#63b8ff" stroke="#63b8ff" points="357.52,-122.85 367.96,-121 358.65,-115.94 357.52,-122.85"/>
</a>
</g>
</g>
<!-- Node3 -->
<g id="Node000003" class="node">
<title>Node3</title>
<g id="a_Node000003"><a xlink:href="input__strings_8c_source.html" target="_top" xlink:title=" ">
<polygon fill="white" stroke="#666666" points="286,-85 159,-85 159,-55 286,-55 286,-85"/>
<text text-anchor="start" x="167" y="-73" font-family="Mononoki" font-size="10.00">dynarr/examples/input</text>
<text text-anchor="middle" x="222.5" y="-62" font-family="Mononoki" font-size="10.00">_strings.c</text>
</a>
</g>
</g>
<!-- Node1&#45;&gt;Node3 -->
<g id="edge2_Node000001_Node000003" class="edge">
<title>Node1&#45;&gt;Node3</title>
<g id="a_edge2_Node000001_Node000003"><a xlink:title=" ">
<path fill="none" stroke="#63b8ff" d="M381.84,-118.08C349.86,-108.63 304.32,-95.17 270.1,-85.06"/>
<polygon fill="#63b8ff" stroke="#63b8ff" points="381.13,-121.52 391.71,-120.99 383.11,-114.8 381.13,-121.52"/>
</a>
</g>
</g>
<!-- Node4 -->
<g id="Node000004" class="node">
<title>Node4</title>
<g id="a_Node000004"><a xlink:href="dynarr_8c.html" target="_top" xlink:title="Contains implementation of the dynarr.">
<polygon fill="white" stroke="#666666" points="411,-79.5 304,-79.5 304,-60.5 411,-60.5 411,-79.5"/>
<text text-anchor="middle" x="357.5" y="-67.5" font-family="Mononoki" font-size="10.00">dynarr/src/dynarr.c</text>
</a>
</g>
</g>
<!-- Node1&#45;&gt;Node4 -->
<g id="edge3_Node000001_Node000004" class="edge">
<title>Node1&#45;&gt;Node4</title>
<g id="a_edge3_Node000001_Node000004"><a xlink:title=" ">
<path fill="none" stroke="#63b8ff" d="M403.71,-113.91C391.9,-102.94 376.53,-88.67 366.83,-79.67"/>
<polygon fill="#63b8ff" stroke="#63b8ff" points="401.49,-116.63 411.2,-120.87 406.26,-111.5 401.49,-116.63"/>
</a>
</g>
</g>
<!-- Node5 -->
<g id="Node000005" class="node">
<title>Node5</title>
<g id="a_Node000005"><a xlink:href="dynarr__test_8c_source.html" target="_top" xlink:title=" ">
<polygon fill="white" stroke="#666666" points="539.5,-85 429.5,-85 429.5,-55 539.5,-55 539.5,-85"/>
<text text-anchor="start" x="437.5" y="-73" font-family="Mononoki" font-size="10.00">dynarr/tests/dynarr</text>
<text text-anchor="middle" x="484.5" y="-62" font-family="Mononoki" font-size="10.00">_test.c</text>
</a>
</g>
</g>
<!-- Node1&#45;&gt;Node5 -->
<g id="edge4_Node000001_Node000005" class="edge">
<title>Node1&#45;&gt;Node5</title>
<g id="a_edge4_Node000001_Node000005"><a xlink:title=" ">
<path fill="none" stroke="#63b8ff" d="M437.49,-113.97C447.3,-105.01 459.53,-93.82 469.06,-85.11"/>
<polygon fill="#63b8ff" stroke="#63b8ff" points="434.96,-111.54 429.94,-120.87 439.69,-116.7 434.96,-111.54"/>
</a>
</g>
</g>
<!-- Node6 -->
<g id="Node000006" class="node">
<title>Node6</title>
<g id="a_Node000006"><a xlink:href="sparse_8c_source.html" target="_top" xlink:title=" ">
<polygon fill="white" stroke="#666666" points="637.5,-19 563.5,-19 563.5,0 637.5,0 637.5,-19"/>
<text text-anchor="middle" x="600.5" y="-7" font-family="Mononoki" font-size="10.00">src/sparse.c</text>
</a>
</g>
</g>
<!-- Node1&#45;&gt;Node6 -->
<g id="edge5_Node000001_Node000006" class="edge">
<title>Node1&#45;&gt;Node6</title>
<g id="a_edge5_Node000001_Node000006"><a xlink:title=" ">
<path fill="none" stroke="#63b8ff" d="M475.9,-118.37C499.91,-111.59 527.32,-101.04 548.5,-85 572.39,-66.91 589.46,-34.64 596.68,-19.2"/>
<polygon fill="#63b8ff" stroke="#63b8ff" points="474.95,-115 466.19,-120.96 476.75,-121.76 474.95,-115"/>
</a>
</g>
</g>
<!-- Node7 -->
<g id="Node000007" class="node">
<title>Node7</title>
<g id="a_Node000007"><a xlink:href="sparse_8h_source.html" target="_top" xlink:title=" ">
<polygon fill="white" stroke="#666666" points="671,-79.5 596,-79.5 596,-60.5 671,-60.5 671,-79.5"/>
<text text-anchor="middle" x="633.5" y="-67.5" font-family="Mononoki" font-size="10.00">src/sparse.h</text>
</a>
</g>
</g>
<!-- Node1&#45;&gt;Node7 -->
<g id="edge6_Node000001_Node000007" class="edge">
<title>Node1&#45;&gt;Node7</title>
<g id="a_edge6_Node000001_Node000007"><a xlink:title=" ">
<path fill="none" stroke="#63b8ff" d="M461.19,-118.32C502.38,-107.01 565.17,-89.77 602.49,-79.52"/>
<polygon fill="#63b8ff" stroke="#63b8ff" points="460.19,-114.97 451.47,-120.99 462.04,-121.72 460.19,-114.97"/>
</a>
</g>
</g>
<!-- Node7&#45;&gt;Node6 -->
<g id="edge7_Node000007_Node000006" class="edge">
<title>Node7&#45;&gt;Node6</title>
<g id="a_edge7_Node000007_Node000006"><a xlink:title=" ">
<path fill="none" stroke="#63b8ff" d="M623.62,-51.48C617.6,-40.81 610.17,-27.65 605.39,-19.17"/>
<polygon fill="#63b8ff" stroke="#63b8ff" points="620.67,-53.38 628.63,-60.37 626.77,-49.94 620.67,-53.38"/>
</a>
</g>
</g>
</g>
</svg>

<g id="navigator" transform="translate(0 0)" fill="#404254">
  <rect fill="#f2f5e9" fill-opacity="0.5" stroke="#606060" stroke-width=".5" x="0" y="0" width="60" height="60"/>
  <use id="zoomplus" xlink:href="#zoomPlus" x="17" y="9" onmousedown="handleZoom(evt,'in')"/>
  <use id="zoomminus" xlink:href="#zoomMin" x="42" y="9" onmousedown="handleZoom(evt,'out')"/>
  <use id="reset" xlink:href="#resetDef" x="30" y="36" onmousedown="handleReset()"/>
   <use id="arrowup" xlink:href="#arrowUp" x="0" y="0" onmousedown="handlePan(0,-1)"/>
  <use id="arrowright" xlink:href="#arrowRight" x="0" y="0" onmousedown="handlePan(1,0)"/>
  <use id="arrowdown" xlink:href="#arrowDown" x="0" y="0" onmousedown="handlePan(0,1)"/>
  <use id="arrowleft" xlink:href="#arrowLeft" x="0" y="0" onmousedown="handlePan(-1,0)"/>
</g>
<svg viewBox="0 0 15 15" width="100%" height="30px" preserveAspectRatio="xMaxYMin meet">
 <g id="arrow_out" transform="scale(0.3 0.3)">
  <a xlink:href="dynarr_8h__dep__incl_org.svg" target="_base">
   <rect id="button" ry="5" rx="5" y="6" x="6" height="38" width="38"
        fill="#f2f5e9" fill-opacity="0.5" stroke="#606060" stroke-width="1.0"/>
   <path id="arrow"
     d="M 11.500037,31.436501 C 11.940474,20.09759 22.043105,11.32322 32.158766,21.979434 L 37.068811,17.246167 C 37.068811,17.246167 37.088388,32 37.088388,32 L 22.160133,31.978069 C 22.160133,31.978069 26.997745,27.140456 26.997745,27.140456 C 18.528582,18.264221 13.291696,25.230495 11.500037,31.436501 z"
     style="fill:#404040;"/>
  </a>
 </g>
</svg>

<style type='text/css'>
<![CDATA[
[data-mouse-over-selected='false'] { opacity: 0.7; }
[data-mouse-over-selected='true']  { opacity: 1.0; }
]]>
</style>
<script type="application/ecmascript"><![CDATA[
document.addEventListener('DOMContentLoaded', (event) => {
  highlightEdges();
  highlightAdjacentNodes();
});
]]></script>
</svg>
