<?xml version="1.0" encoding="UTF-8" standalone="no"?>
<!DOCTYPE svg PUBLIC "-//W3C//DTD SVG 1.1//EN"
 "http://www.w3.org/Graphics/SVG/1.1/DTD/svg11.dtd">
<!-- Generated by graphviz version 2.43.0 (0)
 -->
<!-- Title: dynarr/src/dynarr.h Pages: 1 -->
<svg width="679pt" height="148pt"
 viewBox="0.00 0.00 679.00 148.00" xmlns="http://www.w3.org/2000/svg" xmlns:xlink="http://www.w3.org/1999/xlink">
<g id="graph0" class="graph" transform="scale(1 1) rotate(0) translate(4 144)">
<title>dynarr/src/dynarr.h</title>
<!-- Node1 -->
<g id="Node000001" class="node">
<title>Node1</title>
<g id="a_Node000001"><a xlink:title="Describes dynarr public interface.">
<polygon fill="#999999" stroke="#666666" points="474.5,-140 366.5,-140 366.5,-121 474.5,-121 474.5,-140"/>
<text text-anchor="middle" x="420.5" y="-128" font-family="Mononoki" font-size="10.00">dynarr/src/dynarr.h</text>
</a>
</g>
</g>
<!-- Node2 -->
<g id="Node000002" class="node">
<title>Node2</title>
<g id="a_Node000002"><a xlink:href="create_8c_source.html" target="_top" xlink:title=" ">
<polygon fill="white" stroke="#666666" points="141,-79.5 0,-79.5 0,-60.5 141,-60.5 141,-79.5"/>
<text text-anchor="middle" x="70.5" y="-67.5" font-family="Mononoki" font-size="10.00">dynarr/examples/create.c</text>
</a>
</g>
</g>
<!-- Node1&#45;&gt;Node2 -->
<g id="edge1_Node000001_Node000002" class="edge">
<title>Node1&#45;&gt;Node2</title>
<g id="a_edge1_Node000001_Node000002"><a xlink:title=" ">
<path fill="none" stroke="#63b8ff" d="M358.06,-119.39C303.31,-110.48 221.6,-97.08 150.5,-85 140.21,-83.25 129.19,-81.35 118.71,-79.52"/>
<polygon fill="#63b8ff" stroke="#63b8ff" points="357.52,-122.85 367.96,-121 358.65,-115.94 357.52,-122.85"/>
</a>
</g>
</g>
<!-- Node3 -->
<g id="Node000003" class="node">
<title>Node3</title>
<g id="a_Node000003"><a xlink:href="input__strings_8c_source.html" target="_top" xlink:title=" ">
<polygon fill="white" stroke="#666666" points="286,-85 159,-85 159,-55 286,-55 286,-85"/>
<text text-anchor="start" x="167" y="-73" font-family="Mononoki" font-size="10.00">dynarr/examples/input</text>
<text text-anchor="middle" x="222.5" y="-62" font-family="Mononoki" font-size="10.00">_strings.c</text>
</a>
</g>
</g>
<!-- Node1&#45;&gt;Node3 -->
<g id="edge2_Node000001_Node000003" class="edge">
<title>Node1&#45;&gt;Node3</title>
<g id="a_edge2_Node000001_Node000003"><a xlink:title=" ">
<path fill="none" stroke="#63b8ff" d="M381.84,-118.08C349.86,-108.63 304.32,-95.17 270.1,-85.06"/>
<polygon fill="#63b8ff" stroke="#63b8ff" points="381.13,-121.52 391.71,-120.99 383.11,-114.8 381.13,-121.52"/>
</a>
</g>
</g>
<!-- Node4 -->
<g id="Node000004" class="node">
<title>Node4</title>
<g id="a_Node000004"><a xlink:href="dynarr_8c.html" target="_top" xlink:title="Contains implementation of the dynarr.">
<polygon fill="white" stroke="#666666" points="411,-79.5 304,-79.5 304,-60.5 411,-60.5 411,-79.5"/>
<text text-anchor="middle" x="357.5" y="-67.5" font-family="Mononoki" font-size="10.00">dynarr/src/dynarr.c</text>
</a>
</g>
</g>
<!-- Node1&#45;&gt;Node4 -->
<g id="edge3_Node000001_Node000004" class="edge">
<title>Node1&#45;&gt;Node4</title>
<g id="a_edge3_Node000001_Node000004"><a xlink:title=" ">
<path fill="none" stroke="#63b8ff" d="M403.71,-113.91C391.9,-102.94 376.53,-88.67 366.83,-79.67"/>
<polygon fill="#63b8ff" stroke="#63b8ff" points="401.49,-116.63 411.2,-120.87 406.26,-111.5 401.49,-116.63"/>
</a>
</g>
</g>
<!-- Node5 -->
<g id="Node000005" class="node">
<title>Node5</title>
<g id="a_Node000005"><a xlink:href="dynarr__test_8c_source.html" target="_top" xlink:title=" ">
<polygon fill="white" stroke="#666666" points="539.5,-85 429.5,-85 429.5,-55 539.5,-55 539.5,-85"/>
<text text-anchor="start" x="437.5" y="-73" font-family="Mononoki" font-size="10.00">dynarr/tests/dynarr</text>
<text text-anchor="middle" x="484.5" y="-62" font-family="Mononoki" font-size="10.00">_test.c</text>
</a>
</g>
</g>
<!-- Node1&#45;&gt;Node5 -->
<g id="edge4_Node000001_Node000005" class="edge">
<title>Node1&#45;&gt;Node5</title>
<g id="a_edge4_Node000001_Node000005"><a xlink:title=" ">
<path fill="none" stroke="#63b8ff" d="M437.49,-113.97C447.3,-105.01 459.53,-93.82 469.06,-85.11"/>
<polygon fill="#63b8ff" stroke="#63b8ff" points="434.96,-111.54 429.94,-120.87 439.69,-116.7 434.96,-111.54"/>
</a>
</g>
</g>
<!-- Node6 -->
<g id="Node000006" class="node">
<title>Node6</title>
<g id="a_Node000006"><a xlink:href="sparse_8c_source.html" target="_top" xlink:title=" ">
<polygon fill="white" stroke="#666666" points="637.5,-19 563.5,-19 563.5,0 637.5,0 637.5,-19"/>
<text text-anchor="middle" x="600.5" y="-7" font-family="Mononoki" font-size="10.00">src/sparse.c</text>
</a>
</g>
</g>
<!-- Node1&#45;&gt;Node6 -->
<g id="edge5_Node000001_Node000006" class="edge">
<title>Node1&#45;&gt;Node6</title>
<g id="a_edge5_Node000001_Node000006"><a xlink:title=" ">
<path fill="none" stroke="#63b8ff" d="M475.9,-118.37C499.91,-111.59 527.32,-101.04 548.5,-85 572.39,-66.91 589.46,-34.64 596.68,-19.2"/>
<polygon fill="#63b8ff" stroke="#63b8ff" points="474.95,-115 466.19,-120.96 476.75,-121.76 474.95,-115"/>
</a>
</g>
</g>
<!-- Node7 -->
<g id="Node000007" class="node">
<title>Node7</title>
<g id="a_Node000007"><a xlink:href="sparse_8h_source.html" target="_top" xlink:title=" ">
<polygon fill="white" stroke="#666666" points="671,-79.5 596,-79.5 596,-60.5 671,-60.5 671,-79.5"/>
<text text-anchor="middle" x="633.5" y="-67.5" font-family="Mononoki" font-size="10.00">src/sparse.h</text>
</a>
</g>
</g>
<!-- Node1&#45;&gt;Node7 -->
<g id="edge6_Node000001_Node000007" class="edge">
<title>Node1&#45;&gt;Node7</title>
<g id="a_edge6_Node000001_Node000007"><a xlink:title=" ">
<path fill="none" stroke="#63b8ff" d="M461.19,-118.32C502.38,-107.01 565.17,-89.77 602.49,-79.52"/>
<polygon fill="#63b8ff" stroke="#63b8ff" points="460.19,-114.97 451.47,-120.99 462.04,-121.72 460.19,-114.97"/>
</a>
</g>
</g>
<!-- Node7&#45;&gt;Node6 -->
<g id="edge7_Node000007_Node000006" class="edge">
<title>Node7&#45;&gt;Node6</title>
<g id="a_edge7_Node000007_Node000006"><a xlink:title=" ">
<path fill="none" stroke="#63b8ff" d="M623.62,-51.48C617.6,-40.81 610.17,-27.65 605.39,-19.17"/>
<polygon fill="#63b8ff" stroke="#63b8ff" points="620.67,-53.38 628.63,-60.37 626.77,-49.94 620.67,-53.38"/>
</a>
</g>
</g>
</g>
</svg>
